<svg width="193" height="193" viewBox="0 0 193 193" fill="none" xmlns="http://www.w3.org/2000/svg">
<g filter="url(#filter0_d_842_1685)">
<circle cx="92.5" cy="92.5" r="46.5" fill="white"/>
</g>
<path d="M85.4004 63V67.96" stroke="url(#paint0_linear_842_1685)" stroke-width="2.48" stroke-linecap="round" stroke-linejoin="round"/>
<path d="M76.6328 66.6333L80.142 70.1425" stroke="url(#paint1_linear_842_1685)" stroke-width="2.48" stroke-linecap="round" stroke-linejoin="round"/>
<path d="M73 75.3999H77.96" stroke="url(#paint2_linear_842_1685)" stroke-width="2.48" stroke-linecap="round" stroke-linejoin="round"/>
<path d="M124.961 90.0861V79.1875C124.961 78.9135 124.755 78.7763 124.55 78.7763L113.514 78.7758C113.103 77.9534 111.663 75.5542 107.756 75.0746C106.523 74.9374 105.494 75.0746 104.74 75.3486C103.301 75.897 102.547 77.0622 102.273 77.7479C101.587 77.3367 100.422 77.1311 99.3254 78.0907C98.503 78.7764 98.3658 79.6671 98.4341 80.4211H98.1602C97.4061 80.4211 96.7205 80.764 95.9665 81.518C95.3497 82.1348 95.0752 82.8205 95.1441 83.5056C95.2125 84.3279 95.6241 84.9452 95.8981 85.3564C95.6241 85.4936 95.2813 85.7676 94.8013 86.042L93.4988 85.1508C93.156 84.8768 92.6764 84.808 92.2652 84.8768C91.854 84.9452 91.4428 85.2197 91.2372 85.5625C90.9633 85.9053 90.8944 86.3849 90.9632 86.7961C91.0316 87.2073 91.3061 87.6185 91.6489 87.824C91.5117 87.8924 91.3749 87.9613 91.3061 88.0296L89.7981 87.0017C89.0441 86.4532 88.016 86.6588 87.4677 87.4129C87.1937 87.7557 87.1248 88.2353 87.1937 88.6464C87.2621 89.0576 87.5365 89.4688 87.8793 89.6744L88.0166 89.7428C87.8793 89.8112 87.811 89.88 87.6737 89.9484L85.7545 88.6459C85.0004 88.1659 83.9724 88.3031 83.424 89.0571C83.1501 89.3999 83.0812 89.8795 83.1501 90.2907C83.2184 90.7019 83.4929 91.1131 83.8357 91.3187L84.1785 91.5926C84.0413 91.661 83.9046 91.7299 83.7673 91.7982L81.8481 90.4957C81.0941 90.0157 80.066 90.1529 79.5177 90.9069C78.9693 91.661 79.1748 92.689 79.9289 93.2374L80.0661 93.3057C77.2556 94.4026 75.0624 94.8822 73.5544 94.7454C67.1799 94.197 65.8774 97.7616 65.7402 98.3783C64.9178 99.7491 64.7806 101.052 65.329 102.286C67.6571 107.154 79.3098 108.868 79.8582 108.936L123.384 109.073C124.139 109.073 124.824 108.799 125.372 108.251C125.92 107.702 126.194 107.017 126.194 106.263V103.59C128.319 94.8842 125.646 90.9079 124.961 90.0866L124.961 90.0861ZM119.82 94.3358C116.05 94.1302 112.486 94.0618 109.264 94.2674C108.99 94.2674 108.853 94.473 108.853 94.7474C108.853 95.0214 109.059 95.1586 109.333 95.1586C112.212 95.0214 115.365 95.0214 118.655 95.227C115.16 97.8319 113.241 100.642 112.349 102.493L106.386 98.4486C107.757 97.9686 110.91 97.0779 115.64 96.6666C115.914 96.6666 116.051 96.461 116.051 96.1865C116.051 95.9126 115.777 95.7753 115.571 95.7753C109.813 96.2554 106.386 97.489 105.495 97.8318L102.753 95.981C103.507 95.8437 105.153 95.5009 107.757 95.2953C108.031 95.2953 108.168 95.0897 108.168 94.8153C108.168 94.5413 107.962 94.4041 107.688 94.4041C103.987 94.678 102.136 95.1581 102.067 95.1581C101.999 95.1581 101.93 95.2265 101.861 95.2953C101.176 94.6097 101.039 93.5817 101.587 92.7593L103.301 90.2232C103.712 90.3604 104.192 90.566 104.604 90.7033H104.672C107.277 91.5945 110.567 92.2113 114.611 92.2113C117.558 92.2113 120.849 91.8684 124.619 91.046C124.756 91.2516 124.893 91.4572 125.03 91.7317C122.973 92.4848 121.259 93.376 119.82 94.3356L119.82 94.3358ZM107.619 75.9656C110.635 76.3084 112.006 77.9532 112.486 78.7761C110.841 78.7761 106.659 78.5705 105.426 76.1028C106.042 75.8967 106.728 75.8284 107.619 75.9656V75.9656ZM104.603 76.3768C105.974 79.324 110.498 79.6669 112.349 79.6669H113.171H124.07V90.2231C115.775 92.0051 109.607 91.3883 105.288 90.0175C105.905 88.715 106.385 87.6182 106.796 86.7274C109.401 87.7554 112.828 88.5783 117.078 88.5783C118.792 88.5783 120.643 88.4411 122.63 88.0982C122.904 88.0299 123.041 87.8243 122.973 87.6182C122.905 87.3442 122.699 87.207 122.493 87.2754C116.049 88.3033 110.977 87.4126 107.207 85.9729C108.167 83.7792 108.51 83.094 108.578 82.8195C110.772 83.6419 113.445 84.2592 116.666 84.2592C118.517 84.2592 120.505 84.0536 122.629 83.5736C122.835 83.5052 123.041 83.2996 122.972 83.0252C122.904 82.8196 122.698 82.614 122.424 82.6823C115.775 84.1903 110.771 82.8879 107.755 81.5171C105.082 80.2836 103.437 78.8439 102.888 78.3638C103.095 77.8847 103.506 76.9935 104.603 76.3767L104.603 76.3768ZM99.8049 78.8444C101.038 77.8164 101.999 78.7072 102.067 78.8444C102.204 78.9817 104.123 80.9009 107.688 82.4773V82.5457C107.619 82.7513 107.071 84.0537 106.317 85.6301C102.067 83.8481 99.7365 81.5172 99.5309 81.2432C99.4621 80.9693 98.7764 79.7357 99.8049 78.8444L99.8049 78.8444ZM82.0516 94.747C82.3256 94.9526 82.6684 95.0209 83.0112 95.0209C83.5597 95.0209 84.0392 94.747 84.382 94.2669C84.5193 94.0613 84.4504 93.7869 84.2448 93.6501C84.0392 93.5129 83.7647 93.5817 83.628 93.7873C83.4908 93.9246 83.354 94.0613 83.148 94.1302C82.9424 94.1985 82.7368 94.1302 82.5995 93.9929L82.1883 93.719C82.3256 93.6506 82.3939 93.6506 82.5312 93.5817C82.7368 93.5134 82.874 93.2389 82.7368 93.0333C82.6684 92.8277 82.3939 92.6905 82.1883 92.8277C81.9144 92.9649 81.6399 93.0333 81.3659 93.1705L80.7491 92.7593C80.4063 92.4854 80.3379 92.0053 80.5435 91.6625C80.6808 91.5253 80.8175 91.3885 81.0236 91.3197C81.2292 91.2513 81.4348 91.3197 81.572 91.4569L83.3541 92.6905V92.7588C83.4224 92.8961 83.5597 93.0328 83.7653 93.0328C83.8336 93.0328 83.9025 93.0328 83.9709 92.9644C84.0392 92.9644 84.1081 92.8961 84.1765 92.8961C84.5193 92.7588 84.8621 92.5532 85.2044 92.416L85.8901 92.8961C86.1641 93.1017 86.5069 93.17 86.8497 93.17H87.1925C87.6037 93.1017 88.0149 92.8272 88.2894 92.4844C88.4266 92.2788 88.3577 92.0043 88.1521 91.8676C87.9465 91.7304 87.6721 91.7992 87.5353 92.0048C87.3981 92.1421 87.2614 92.2788 87.0553 92.3476C86.8497 92.416 86.6441 92.3476 86.5069 92.2104L86.2329 92.0048C86.3701 91.9365 86.5757 91.8676 86.7129 91.7992C86.9185 91.662 86.9869 91.4564 86.9185 91.1824C86.7813 90.9768 86.5757 90.9085 86.3017 90.9768C85.9589 91.1141 85.685 91.2508 85.4105 91.4569L84.5881 90.9085C84.4509 90.7712 84.3141 90.6345 84.2453 90.4284C84.1769 90.2228 84.2453 90.0172 84.3825 89.88C84.5881 89.5372 85.1365 89.4688 85.4793 89.6744L87.3986 90.9769L87.6042 91.1825C87.7414 91.3881 88.0154 91.4564 88.221 91.3197C88.3582 91.2513 88.4266 91.1141 88.4266 90.9769C88.6322 90.8396 88.8378 90.7713 89.0434 90.634L90.003 91.2508C90.277 91.4564 90.6198 91.5248 90.9626 91.5248C91.5111 91.5248 91.9906 91.2508 92.3334 90.7708C92.4706 90.5652 92.4018 90.2907 92.1962 90.154C91.9906 90.0168 91.7161 90.0856 91.5794 90.2912C91.3054 90.634 90.8254 90.7713 90.4826 90.4968L89.9341 90.0856C90.0714 90.0172 90.1397 89.9484 90.277 89.88C90.4826 89.7428 90.5509 89.4688 90.4826 89.2632C90.3453 89.0576 90.0714 88.9892 89.8658 89.0576C89.5918 89.1948 89.3857 89.3316 89.1117 89.4688L88.5633 89.126C88.4261 88.9888 88.2893 88.852 88.2205 88.6459C88.1521 88.4403 88.2205 88.2347 88.3577 88.0975C88.6317 87.7547 89.1117 87.6175 89.4546 87.8919L91.3738 89.1944C91.5794 89.3316 91.8539 89.2628 91.9906 89.0572C91.9906 88.9888 92.059 88.9888 92.059 88.92C92.2646 88.7827 92.4702 88.646 92.6758 88.5771L93.7726 89.3312C94.0466 89.5368 94.3894 89.6051 94.7322 89.6051C95.2807 89.6051 95.7602 89.3312 96.103 88.8511C96.2402 88.6455 96.1714 88.3711 95.9658 88.2343C95.7602 88.0971 95.4858 88.1659 95.349 88.3715C95.075 88.7144 94.595 88.7827 94.2522 88.5771L93.4981 88.0287C93.6354 87.9603 93.841 87.8231 93.9782 87.7547C94.1838 87.6175 94.2522 87.3435 94.1154 87.1379C93.9782 86.9323 93.7042 86.864 93.4986 87.0007C93.2246 87.1379 92.9502 87.3435 92.6762 87.4808L92.3334 87.2752C91.9906 87.0012 91.8533 86.5211 92.1278 86.1783C92.265 86.0411 92.4018 85.9043 92.6078 85.8355C92.8134 85.7671 93.019 85.8355 93.1563 85.9727L94.6643 87.0007C94.8015 87.1379 95.0071 87.0691 95.2127 87.0007C96.3095 86.3151 96.9263 85.9039 96.9263 85.9039C97.0635 85.8355 97.1319 85.6983 97.1319 85.561C97.1319 85.4238 97.0635 85.2871 96.9947 85.2182C96.9947 85.2182 96.1723 84.4642 96.1035 83.573C96.1035 83.093 96.3091 82.6134 96.7203 82.2022C97.2687 81.6538 97.7482 81.3798 98.2283 81.3798C98.7083 81.3798 99.0507 81.791 99.0507 81.791C99.119 81.8594 101.107 84.053 105.083 85.904C105.426 86.0412 105.768 86.2468 106.18 86.384C105.7 87.4809 105.152 88.7145 104.672 89.7429C101.587 88.6461 99.5307 87.2753 98.4339 86.3156C98.2283 86.1784 97.9538 86.1784 97.8171 86.384C97.6798 86.5896 97.6798 86.864 97.8854 87.0008C98.845 87.8232 100.421 88.8516 102.615 89.8797L101.039 92.279C100.148 93.5815 100.49 95.3634 101.861 96.2547L112.211 103.246C112.074 103.589 112.006 103.795 111.937 104H110.635L82.9426 96.0495C82.737 95.9812 82.5998 95.9123 82.3942 95.8439L79.6526 94.6787C80.1327 94.5415 80.6122 94.3359 81.1606 94.1303L82.0516 94.747ZM124.755 107.633C124.413 107.976 123.933 108.182 123.385 108.182L80.0639 108.045L75.6087 102.081C75.5404 102.013 75.4031 101.944 75.3348 101.876C71.9759 101.465 69.3026 100.025 68.0002 99.2025C67.7946 99.0653 67.5201 99.1341 67.3834 99.3397C67.2461 99.5453 67.315 99.8198 67.5206 99.9565C68.8231 100.779 71.5646 102.287 74.9919 102.767L78.8303 107.908C75.8831 107.359 67.8628 105.577 66.2865 102.15C65.8065 101.191 65.9437 100.163 66.6977 98.9969C66.6977 98.9285 66.7661 98.9285 66.7661 98.8597C66.7661 98.7224 67.6573 95.364 73.6891 95.8435C74.9226 95.9119 76.4995 95.7063 78.4188 95.0895C78.4188 95.0895 78.4872 95.1579 78.556 95.1579L82.0517 96.6659C82.2573 96.7343 82.4629 96.8031 82.6685 96.8715L88.1523 98.4479C85.7529 99.4075 84.0393 100.984 82.943 102.218C82.8057 102.424 82.8057 102.698 83.0113 102.835C83.0797 102.903 83.2169 102.972 83.2853 102.972C83.4225 102.972 83.5593 102.904 83.6281 102.835C84.7933 101.532 86.7125 99.7504 89.3858 98.9275C89.4542 98.9275 89.523 98.8591 89.5914 98.7903L107.139 103.863L86.1641 103.863C86.9182 102.972 88.6318 101.396 91.305 100.436C91.5106 100.368 91.6479 100.093 91.579 99.8875C91.5106 99.6819 91.2362 99.5447 91.0306 99.6136C87.4661 100.847 85.5468 103.178 85.0673 103.863H79.7207C80.1319 102.835 81.5716 100.642 85.6156 98.928C85.8212 98.8596 85.9585 98.5852 85.8212 98.3796C85.7529 98.174 85.4784 98.0367 85.2728 98.174C79.4462 100.642 78.6922 104.137 78.6922 104.343C78.6922 104.48 78.6922 104.617 78.7606 104.686C78.829 104.754 78.9662 104.823 79.1034 104.823H117.352L115.295 106.742C115.09 106.879 115.09 107.153 115.295 107.359C115.364 107.427 115.501 107.496 115.638 107.496C115.775 107.496 115.844 107.428 115.912 107.359L119.682 103.863H125.371V106.263C125.304 106.811 125.097 107.291 124.755 107.633L124.755 107.633ZM125.441 103.041C125.441 103.041 125.372 103.041 125.441 103.041H119.477C119.34 103.041 119.272 103.109 119.203 103.178L118.312 104.001H112.623C113.377 102.15 116.461 95.9808 125.372 92.6219C126.058 94.4728 126.606 97.8316 125.441 103.041L125.441 103.041Z" fill="#4E5B5E"/>
<path d="M89.1798 96.5978C89.3854 96.5978 89.5227 96.5978 89.7283 96.5295L92.3331 95.7071C92.5387 95.6387 92.6759 95.3642 92.6071 95.1586C92.5387 94.953 92.2642 94.8158 92.0586 94.8847L89.3854 95.7066C88.9742 95.8438 88.563 95.6382 88.4258 95.2265C88.2885 94.8153 88.4941 94.4041 88.9058 94.2669L95.966 91.9365C96.3772 91.7993 96.7884 92.0049 96.9256 92.4165C97.0628 92.8277 96.8572 93.2389 96.4455 93.3762L94.1151 94.1302C93.9095 94.1986 93.7723 94.473 93.8412 94.6786C93.9095 94.8842 94.184 95.0214 94.3896 94.9526L96.72 94.1986C97.6112 93.9246 98.0908 92.965 97.748 92.0738C97.474 91.1825 96.5144 90.703 95.6232 91.0458L88.563 93.3762C87.6718 93.6502 87.1922 94.6098 87.535 95.501C87.809 96.1866 88.4258 96.5978 89.1799 96.5978L89.1798 96.5978Z" fill="url(#paint3_linear_842_1685)"/>
<circle cx="100.5" cy="92.5" r="45.75" stroke="url(#paint4_linear_842_1685)" stroke-width="1.5" stroke-dasharray="4 4"/>
<defs>
<filter id="filter0_d_842_1685" x="0" y="0" width="193" height="193" filterUnits="userSpaceOnUse" color-interpolation-filters="sRGB">
<feFlood flood-opacity="0" result="BackgroundImageFix"/>
<feColorMatrix in="SourceAlpha" type="matrix" values="0 0 0 0 0 0 0 0 0 0 0 0 0 0 0 0 0 0 127 0" result="hardAlpha"/>
<feOffset dx="4" dy="4"/>
<feGaussianBlur stdDeviation="25"/>
<feComposite in2="hardAlpha" operator="out"/>
<feColorMatrix type="matrix" values="0 0 0 0 0.810167 0 0 0 0 0.720833 0 0 0 0 1 0 0 0 0.35 0"/>
<feBlend mode="normal" in2="BackgroundImageFix" result="effect1_dropShadow_842_1685"/>
<feBlend mode="normal" in="SourceGraphic" in2="effect1_dropShadow_842_1685" result="shape"/>
</filter>
<linearGradient id="paint0_linear_842_1685" x1="85.4004" y1="67.96" x2="86.4004" y2="67.96" gradientUnits="userSpaceOnUse">
<stop stop-color="#F416A0"/>
<stop offset="1" stop-color="#AE72FF"/>
</linearGradient>
<linearGradient id="paint1_linear_842_1685" x1="76.6328" y1="70.1425" x2="80.142" y2="70.1425" gradientUnits="userSpaceOnUse">
<stop stop-color="#F416A0"/>
<stop offset="1" stop-color="#AE72FF"/>
</linearGradient>
<linearGradient id="paint2_linear_842_1685" x1="73" y1="76.3999" x2="77.96" y2="76.3999" gradientUnits="userSpaceOnUse">
<stop stop-color="#F416A0"/>
<stop offset="1" stop-color="#AE72FF"/>
</linearGradient>
<linearGradient id="paint3_linear_842_1685" x1="87.4238" y1="96.5978" x2="97.8592" y2="96.5978" gradientUnits="userSpaceOnUse">
<stop stop-color="#F416A0"/>
<stop offset="1" stop-color="#AE72FF"/>
</linearGradient>
<linearGradient id="paint4_linear_842_1685" x1="54" y1="139" x2="147" y2="139" gradientUnits="userSpaceOnUse">
<stop stop-color="#F416A0"/>
<stop offset="1" stop-color="#AE72FF"/>
</linearGradient>
</defs>
</svg>
