<svg width="193" height="193" viewBox="0 0 193 193" fill="none" xmlns="http://www.w3.org/2000/svg">
<g filter="url(#filter0_d_842_1683)">
<circle cx="92.5" cy="92.5" r="46.5" fill="white"/>
</g>
<path d="M114.091 77H78.9091C76.7502 77 75 78.9028 75 81.25V106.75C75 109.097 76.7502 111 78.9091 111H114.091C116.25 111 118 109.097 118 106.75V81.25C118 78.9028 116.25 77 114.091 77Z" stroke="#4E5B5E" stroke-width="1.5" stroke-linecap="round" stroke-linejoin="round"/>
<path d="M100 94C100 91.7909 101.791 90 104 90H118V98H104C101.791 98 100 96.2091 100 94V94Z" fill="#4E5B5E"/>
<circle cx="104" cy="94" r="2" fill="white"/>
<path d="M126.4 76.3997L121.44 76.3997" stroke="url(#paint0_linear_842_1683)" stroke-width="2.48" stroke-linecap="round" stroke-linejoin="round"/>
<path d="M122.768 67.6323L119.258 71.1415" stroke="url(#paint1_linear_842_1683)" stroke-width="2.48" stroke-linecap="round" stroke-linejoin="round"/>
<path d="M114 63.9995L114 68.9595" stroke="url(#paint2_linear_842_1683)" stroke-width="2.48" stroke-linecap="round" stroke-linejoin="round"/>
<path d="M81.454 85.921C80.8926 85.3597 79.9824 85.3597 79.421 85.921C78.8597 86.4824 78.8597 87.3926 79.421 87.954L83.5296 92.0625H66.9375C66.1436 92.0625 65.5 92.7061 65.5 93.5C65.5 94.2939 66.1436 94.9375 66.9375 94.9375H83.5296L79.421 99.046C78.8597 99.6074 78.8597 100.518 79.421 101.079C79.9824 101.64 80.8926 101.64 81.454 101.079L88.0165 94.5165C88.5778 93.9551 88.5778 93.0449 88.0165 92.4835L81.454 85.921Z" fill="url(#paint3_linear_842_1683)" stroke="white"/>
<circle cx="100.5" cy="92.5" r="45.75" stroke="url(#paint4_linear_842_1683)" stroke-width="1.5" stroke-dasharray="4 4"/>
<defs>
<filter id="filter0_d_842_1683" x="0" y="0" width="193" height="193" filterUnits="userSpaceOnUse" color-interpolation-filters="sRGB">
<feFlood flood-opacity="0" result="BackgroundImageFix"/>
<feColorMatrix in="SourceAlpha" type="matrix" values="0 0 0 0 0 0 0 0 0 0 0 0 0 0 0 0 0 0 127 0" result="hardAlpha"/>
<feOffset dx="4" dy="4"/>
<feGaussianBlur stdDeviation="25"/>
<feComposite in2="hardAlpha" operator="out"/>
<feColorMatrix type="matrix" values="0 0 0 0 0.810167 0 0 0 0 0.720833 0 0 0 0 1 0 0 0 0.35 0"/>
<feBlend mode="normal" in2="BackgroundImageFix" result="effect1_dropShadow_842_1683"/>
<feBlend mode="normal" in="SourceGraphic" in2="effect1_dropShadow_842_1683" result="shape"/>
</filter>
<linearGradient id="paint0_linear_842_1683" x1="121.44" y1="76.3997" x2="121.44" y2="77.3997" gradientUnits="userSpaceOnUse">
<stop stop-color="#F416A0"/>
<stop offset="1" stop-color="#AE72FF"/>
</linearGradient>
<linearGradient id="paint1_linear_842_1683" x1="119.258" y1="67.6323" x2="119.258" y2="71.1415" gradientUnits="userSpaceOnUse">
<stop stop-color="#F416A0"/>
<stop offset="1" stop-color="#AE72FF"/>
</linearGradient>
<linearGradient id="paint2_linear_842_1683" x1="113" y1="63.9995" x2="113" y2="68.9595" gradientUnits="userSpaceOnUse">
<stop stop-color="#F416A0"/>
<stop offset="1" stop-color="#AE72FF"/>
</linearGradient>
<linearGradient id="paint3_linear_842_1683" x1="66" y1="101" x2="87.9375" y2="101" gradientUnits="userSpaceOnUse">
<stop stop-color="#F416A0"/>
<stop offset="1" stop-color="#AE72FF"/>
</linearGradient>
<linearGradient id="paint4_linear_842_1683" x1="54" y1="139" x2="147" y2="139" gradientUnits="userSpaceOnUse">
<stop stop-color="#F416A0"/>
<stop offset="1" stop-color="#AE72FF"/>
</linearGradient>
</defs>
</svg>
