<svg
  width="100"
  height="150"
  viewBox="0 0 100 150"
  fill="none"
  xmlns="http://www.w3.org/2000/svg"
>
<path
    d="M48.9566 48.891V46.9173L36.8302 45.7895L48.9566 48.891Z"
    fill="#592F4C"
  />
<path
    d="M48.9566 44.1541V27.4624L24.3655 30.282L48.9566 44.1541Z"
    fill="#631E4C"
  />
<path
    d="M22.4478 31.6353L24.5911 42.5188L45.1213 44.4361L22.4478 31.6353Z"
    fill="#551841"
  />
<path
    d="M51.0434 48.891L63.339 45.6767L51.0434 46.9173V48.891Z"
    fill="#631E4C"
  />
<path
    d="M75.9165 42.2932L77.947 31.6353L54.9915 44.3797L75.9165 42.2932Z"
    fill="#A12377"
  />
<path
    d="M48.9566 149.944V75.7895L22.5606 71.2782L48.9566 149.944Z"
    fill="#4E5B5E"
  />
<path d="M51.0434 150L77.7778 71.0526L51.0434 75.7895V150Z" fill="#D3D6D7" />
<path
    d="M8.46024 25.9398L21.9402 40.094L20.0226 30.3947L8.46024 25.9398Z"
    fill="#592F4C"
  />
<path d="M97.8567 0L97.4055 11.4474L100 0H97.8567Z" fill="#D81E9A" />
<path
    d="M50.0282 73.8158L73.0965 69.7556L50.0282 65.8083L27.1292 69.8684L50.0282 73.8158Z"
    fill="#A6ADAF"
  />
<path
    d="M51.0434 27.4624V44.1541L76.0293 30.282L51.0434 27.4624Z"
    fill="#871F65"
  />
<path
    d="M48.1105 25.4323L31.3593 1.29699L22.5042 28.3647L48.1105 25.4323Z"
    fill="#871F65"
  />
<path d="M29.5544 0H5.01974L20.6994 27.0113L29.5544 0Z" fill="#631E4C" />
<path
    d="M18.4997 27.5188L4.45573 3.27068L5.47096 22.5L18.4997 27.5188Z"
    fill="#551841"
  />
<path
    d="M78.5674 39.8684L91.7654 25.7707L80.3723 30.3383L78.5674 39.8684Z"
    fill="#D81E9A"
  />
<path d="M2.76368 11.5602L2.14326 0H0L2.76368 11.5602Z" fill="#592F4C" />
<path d="M95.0367 0H70.6712L79.6954 27.0113L95.0367 0Z" fill="#F416A0" />
<path
    d="M94.8675 22.218L95.6007 3.27068L81.8951 27.4624L94.8675 22.218Z"
    fill="#DD24A9"
  />
<path
    d="M77.8906 28.3647L68.8099 1.29699L51.8895 25.4323L77.8906 28.3647Z"
    fill="#D81E9A"
  />
<path d="M67.1179 0H33.0513L50.0282 24.4173L67.1179 0Z" fill="#A12377" />
</svg>
